<svg width="33" height="32" viewBox="0 0 33 32" fill="none" xmlns="http://www.w3.org/2000/svg">
<path d="M16.2989 14.5865C16.543 14.3425 16.543 13.9467 16.2989 13.7026C16.0548 13.4585 15.6592 13.4585 15.415 13.7026C15.2099 13.9077 14.876 13.9077 14.671 13.7026C14.4268 13.4585 14.0312 13.4585 13.787 13.7026C13.543 13.9466 13.543 14.3424 13.787 14.5865C14.1333 14.9328 14.5881 15.1059 15.043 15.1059C15.4978 15.1059 15.9527 14.9328 16.2989 14.5865ZM12.7348 24.7775C12.6186 24.6613 12.4573 24.5944 12.293 24.5944C12.1286 24.5944 11.9673 24.6613 11.8511 24.7775C11.7348 24.8938 11.668 25.055 11.668 25.2194C11.668 25.3838 11.7348 25.545 11.8511 25.6613C11.9674 25.7775 12.1286 25.8444 12.293 25.8444C12.4573 25.8444 12.6186 25.7775 12.7348 25.6613C12.851 25.545 12.918 25.3838 12.918 25.2194C12.918 25.055 12.8511 24.8938 12.7348 24.7775Z" fill="#001277"/>
<path d="M30.0253 18.5437H28.0651V18.1902C28.0651 16.8687 26.9901 15.7937 25.6687 15.7937H24.1673C22.8459 15.7937 21.7709 16.8687 21.7709 18.1902V18.5437H19.8107C19.3183 18.5432 18.8358 18.6812 18.418 18.9418V17.238C20.2183 16.1101 21.418 14.1087 21.418 11.8322V8.75567C21.4632 8.71244 21.5072 8.66798 21.55 8.62236C22.2167 7.90973 22.5479 6.97892 22.4827 6.0013C22.426 5.15055 22.0643 4.35423 21.4643 3.75905C20.8649 3.16442 20.0661 2.80855 19.215 2.75698C18.7961 2.73123 18.376 2.78163 17.9751 2.90573C17.746 2.0738 17.2485 1.33305 16.5432 0.799234C15.0842 -0.305203 13.077 -0.261016 11.6622 0.907047C11.0588 1.40495 10.6164 2.07029 10.3905 2.81923C8.71291 3.14786 7.48503 4.67742 7.57972 6.43173C7.62997 7.36242 8.04441 8.20342 8.66797 8.80255V11.8321C8.66797 14.1087 9.86772 16.11 11.668 17.238V18.4375H7.63672C3.79416 18.4375 0.667969 21.5637 0.667969 25.4063V31.375C0.667969 31.7202 0.947844 32 1.29297 32H30.0253C31.4825 32 32.668 30.8145 32.668 29.3574V21.1864C32.668 19.7292 31.4825 18.5437 30.0253 18.5437ZM23.0209 18.1901C23.0209 17.5579 23.5352 17.0436 24.1673 17.0436H25.6687C26.3008 17.0436 26.8151 17.5579 26.8151 18.1901V18.5436H23.0209V18.1901ZM8.82791 6.36436C8.76153 5.1353 9.70616 4.07823 10.9336 4.00786C11.0743 3.99978 11.2082 3.94437 11.3135 3.85062C11.4187 3.75687 11.4892 3.63028 11.5135 3.49142C11.6258 2.84867 11.9523 2.28836 12.4578 1.87098C13.4238 1.07348 14.7936 1.04261 15.7887 1.79586C16.4462 2.29355 16.8282 3.01898 16.8645 3.83867C16.8693 3.94777 16.9026 4.0537 16.9611 4.1459C17.0196 4.23811 17.1013 4.31336 17.198 4.36417C17.2946 4.41501 17.4029 4.43963 17.512 4.43559C17.6211 4.43154 17.7273 4.39897 17.8199 4.34111C18.2175 4.09286 18.6734 3.97636 19.1393 4.00467C20.2781 4.07361 21.1595 4.9483 21.2353 6.08442C21.2773 6.71305 21.0648 7.31105 20.6371 7.7683C20.2089 8.22598 19.6281 8.47805 19.0018 8.47805C18.2935 8.47805 17.6424 8.1528 17.2155 7.5858C16.7305 6.94155 15.9455 6.56911 15.13 6.56911C14.9707 6.56911 14.8101 6.58336 14.6505 6.61248C13.9107 6.74248 13.2434 7.12236 12.7716 7.68223C12.3361 8.19911 11.6817 8.47223 10.8792 8.47223C9.81091 8.47236 8.89066 7.52673 8.82791 6.36436ZM9.91797 11.8321V9.56505C10.224 9.6668 10.547 9.72236 10.8793 9.72236C12.0452 9.72236 13.0568 9.28392 13.7275 8.48786C14.0107 8.15186 14.4153 7.92305 14.871 7.84298C15.391 7.74792 15.9192 7.94217 16.2169 8.33773C16.8822 9.22136 17.8973 9.72817 19.0018 9.72817C19.4022 9.72817 19.7963 9.65742 20.168 9.5253V11.8322C20.168 14.6581 17.8689 16.9572 15.043 16.9572C12.217 16.9572 9.91797 14.658 9.91797 11.8321ZM17.168 17.8425V19.0625C17.168 20.2343 16.2147 21.1875 15.043 21.1875C13.8712 21.1875 12.918 20.2343 12.918 19.0625V17.8425C13.583 18.0783 14.2982 18.2071 15.043 18.2071C15.7878 18.2071 16.503 18.0783 17.168 17.8425ZM1.91797 30.75V25.4063C1.91797 22.4448 4.18078 20.002 7.06822 19.7157V22.4688C7.06822 22.5803 7.09802 22.6897 7.15455 22.7858C7.21108 22.8818 7.29228 22.961 7.38972 23.0152L8.48134 23.6216L7.17528 25.5566C7.12219 25.6352 7.08769 25.7249 7.07442 25.8189C7.06114 25.9128 7.06943 26.0086 7.09866 26.0989L8.60516 30.75H1.91797ZM12.918 30.75V28.0313C12.918 27.6861 12.6381 27.4063 12.293 27.4063C11.9478 27.4063 11.668 27.6861 11.668 28.0313V30.75H9.91916L8.38172 26.0035L9.89872 23.756C9.94718 23.6842 9.98019 23.6031 9.99564 23.5178C10.0111 23.4326 10.0087 23.3451 9.98851 23.2608C9.96834 23.1766 9.93089 23.0974 9.87852 23.0284C9.82615 22.9594 9.76 22.902 9.68428 22.8599L8.31828 22.101V19.6875H11.668V22.4063C11.668 22.7515 11.9478 23.0313 12.293 23.0313C12.6381 23.0313 12.918 22.7515 12.918 22.4063V21.682C13.4986 22.154 14.2382 22.4375 15.043 22.4375C15.8477 22.4375 16.5873 22.154 17.168 21.682V29.3573C17.1675 29.8497 17.3055 30.3323 17.5661 30.75H12.918V30.75ZM31.418 29.3574C31.418 30.1253 30.7932 30.75 30.0253 30.75H19.8107C19.0427 30.75 18.418 30.1253 18.418 29.3574V25.6569C18.7678 25.8476 19.16 25.9474 19.5585 25.9469H21.1718V26.7091C21.1718 27.0543 21.4517 27.3341 21.7968 27.3341C22.1419 27.3341 22.4218 27.0543 22.4218 26.7091V25.9469H27.4141V26.7091C27.4141 27.0543 27.694 27.3341 28.0391 27.3341C28.3842 27.3341 28.6641 27.0543 28.6641 26.7091V25.9469H30.2774C30.6759 25.9474 31.0681 25.8477 31.4179 25.6569V29.3574H31.418ZM31.418 22.7999V23.5565C31.418 24.1854 30.9063 24.697 30.2775 24.697H28.6642V23.9348C28.6642 23.5896 28.3843 23.3098 28.0392 23.3098C27.694 23.3098 27.4142 23.5896 27.4142 23.9348V24.697H22.4218V23.9348C22.4218 23.5896 22.142 23.3098 21.7968 23.3098C21.4517 23.3098 21.1718 23.5896 21.1718 23.9348V24.697H19.5585C18.9297 24.697 18.418 24.1854 18.418 23.5565V21.1864C18.418 20.4184 19.0428 19.7937 19.8107 19.7937H30.0253C30.7933 19.7937 31.418 20.4184 31.418 21.1864V22.7999H31.418Z" fill="#001277"/>
</svg>
